<mxfile host="app.diagrams.net" modified="2023-10-22T05:13:34.215Z" agent="Mozilla/5.0 (Windows NT 10.0; Win64; x64) AppleWebKit/537.36 (KHTML, like Gecko) Chrome/118.0.0.0 Safari/537.36" etag="1PXvtP0jBAwnHATBesYs" version="22.0.6" type="github">
  <diagram name="第 1 页" id="A-9dhl8txVm8QPDb1R0J">
    <mxGraphModel dx="3915" dy="1927" grid="1" gridSize="10" guides="1" tooltips="1" connect="1" arrows="1" fold="1" page="1" pageScale="1" pageWidth="827" pageHeight="1169" math="0" shadow="0">
      <root>
        <mxCell id="0" />
        <mxCell id="1" parent="0" />
        <mxCell id="HfhqxR9ILK057CA5Awt6-63" value="" style="group" parent="1" vertex="1" connectable="0">
          <mxGeometry x="-2350" y="-1100" width="430" height="330" as="geometry" />
        </mxCell>
        <mxCell id="HfhqxR9ILK057CA5Awt6-39" value="" style="group" parent="HfhqxR9ILK057CA5Awt6-63" vertex="1" connectable="0">
          <mxGeometry y="70" width="360" height="70" as="geometry" />
        </mxCell>
        <mxCell id="HfhqxR9ILK057CA5Awt6-7" value="影片編號" style="rounded=0;whiteSpace=wrap;html=1;strokeWidth=2;fillColor=#dae8fc;strokeColor=#6c8ebf;fontSize=16;fontStyle=4" parent="HfhqxR9ILK057CA5Awt6-39" vertex="1">
          <mxGeometry y="40" width="90" height="30" as="geometry" />
        </mxCell>
        <mxCell id="HfhqxR9ILK057CA5Awt6-15" value="&lt;font style=&quot;font-size: 18px;&quot;&gt;影片&lt;/font&gt;" style="text;strokeColor=none;align=center;fillColor=none;html=1;verticalAlign=middle;whiteSpace=wrap;rounded=0;fontSize=18;fontStyle=1" parent="HfhqxR9ILK057CA5Awt6-39" vertex="1">
          <mxGeometry width="60" height="30" as="geometry" />
        </mxCell>
        <mxCell id="HfhqxR9ILK057CA5Awt6-19" value="片名" style="rounded=0;whiteSpace=wrap;html=1;strokeWidth=2;fillColor=#dae8fc;strokeColor=#6c8ebf;fontSize=16;fontStyle=0" parent="HfhqxR9ILK057CA5Awt6-39" vertex="1">
          <mxGeometry x="90" y="40" width="90" height="30" as="geometry" />
        </mxCell>
        <mxCell id="HfhqxR9ILK057CA5Awt6-20" value="租金" style="rounded=0;whiteSpace=wrap;html=1;strokeWidth=2;fillColor=#dae8fc;strokeColor=#6c8ebf;fontSize=16;fontStyle=0" parent="HfhqxR9ILK057CA5Awt6-39" vertex="1">
          <mxGeometry x="180" y="40" width="90" height="30" as="geometry" />
        </mxCell>
        <mxCell id="HfhqxR9ILK057CA5Awt6-22" value="租期" style="rounded=0;whiteSpace=wrap;html=1;strokeWidth=2;fillColor=#dae8fc;strokeColor=#6c8ebf;fontSize=16;fontStyle=0" parent="HfhqxR9ILK057CA5Awt6-39" vertex="1">
          <mxGeometry x="270" y="40" width="90" height="30" as="geometry" />
        </mxCell>
        <mxCell id="HfhqxR9ILK057CA5Awt6-40" value="" style="group" parent="HfhqxR9ILK057CA5Awt6-63" vertex="1" connectable="0">
          <mxGeometry x="10" y="260" width="360" height="70" as="geometry" />
        </mxCell>
        <mxCell id="HfhqxR9ILK057CA5Awt6-41" value="會員編號" style="rounded=0;whiteSpace=wrap;html=1;strokeWidth=2;fillColor=#dae8fc;strokeColor=#6c8ebf;fontSize=16;fontStyle=4" parent="HfhqxR9ILK057CA5Awt6-40" vertex="1">
          <mxGeometry y="40" width="90" height="30" as="geometry" />
        </mxCell>
        <mxCell id="HfhqxR9ILK057CA5Awt6-42" value="&lt;font style=&quot;font-size: 18px;&quot;&gt;會員&lt;/font&gt;" style="text;strokeColor=none;align=center;fillColor=none;html=1;verticalAlign=middle;whiteSpace=wrap;rounded=0;fontSize=18;fontStyle=1" parent="HfhqxR9ILK057CA5Awt6-40" vertex="1">
          <mxGeometry width="60" height="30" as="geometry" />
        </mxCell>
        <mxCell id="HfhqxR9ILK057CA5Awt6-43" value="姓名" style="rounded=0;whiteSpace=wrap;html=1;strokeWidth=2;fillColor=#dae8fc;strokeColor=#6c8ebf;fontSize=16;fontStyle=0" parent="HfhqxR9ILK057CA5Awt6-40" vertex="1">
          <mxGeometry x="90" y="40" width="90" height="30" as="geometry" />
        </mxCell>
        <mxCell id="HfhqxR9ILK057CA5Awt6-44" value="電話" style="rounded=0;whiteSpace=wrap;html=1;strokeWidth=2;fillColor=#dae8fc;strokeColor=#6c8ebf;fontSize=16;fontStyle=0" parent="HfhqxR9ILK057CA5Awt6-40" vertex="1">
          <mxGeometry x="180" y="40" width="90" height="30" as="geometry" />
        </mxCell>
        <mxCell id="HfhqxR9ILK057CA5Awt6-45" value="預儲金" style="rounded=0;whiteSpace=wrap;html=1;strokeWidth=2;fillColor=#dae8fc;strokeColor=#6c8ebf;fontSize=16;fontStyle=0" parent="HfhqxR9ILK057CA5Awt6-40" vertex="1">
          <mxGeometry x="270" y="40" width="90" height="30" as="geometry" />
        </mxCell>
        <mxCell id="HfhqxR9ILK057CA5Awt6-46" value="" style="group" parent="HfhqxR9ILK057CA5Awt6-63" vertex="1" connectable="0">
          <mxGeometry x="70" y="165" width="360" height="70" as="geometry" />
        </mxCell>
        <mxCell id="HfhqxR9ILK057CA5Awt6-29" value="影片編號" style="rounded=0;whiteSpace=wrap;html=1;strokeWidth=2;fillColor=#dae8fc;strokeColor=#6c8ebf;fontSize=16;fontStyle=4" parent="HfhqxR9ILK057CA5Awt6-46" vertex="1">
          <mxGeometry y="40" width="90" height="30" as="geometry" />
        </mxCell>
        <mxCell id="HfhqxR9ILK057CA5Awt6-30" value="租片" style="text;strokeColor=none;align=center;fillColor=none;html=1;verticalAlign=middle;whiteSpace=wrap;rounded=0;fontSize=18;fontStyle=1" parent="HfhqxR9ILK057CA5Awt6-46" vertex="1">
          <mxGeometry width="60" height="30" as="geometry" />
        </mxCell>
        <mxCell id="HfhqxR9ILK057CA5Awt6-31" value="&lt;u&gt;還片日&lt;/u&gt;" style="rounded=0;whiteSpace=wrap;html=1;strokeWidth=2;fillColor=#dae8fc;strokeColor=#6c8ebf;fontSize=16;fontStyle=0" parent="HfhqxR9ILK057CA5Awt6-46" vertex="1">
          <mxGeometry x="90" y="40" width="90" height="30" as="geometry" />
        </mxCell>
        <mxCell id="HfhqxR9ILK057CA5Awt6-32" value="會員編號" style="rounded=0;whiteSpace=wrap;html=1;strokeWidth=2;fillColor=#dae8fc;strokeColor=#6c8ebf;fontSize=16;fontStyle=0" parent="HfhqxR9ILK057CA5Awt6-46" vertex="1">
          <mxGeometry x="180" y="40" width="90" height="30" as="geometry" />
        </mxCell>
        <mxCell id="HfhqxR9ILK057CA5Awt6-33" value="租期" style="rounded=0;whiteSpace=wrap;html=1;strokeWidth=2;fillColor=#dae8fc;strokeColor=#6c8ebf;fontSize=16;fontStyle=0" parent="HfhqxR9ILK057CA5Awt6-46" vertex="1">
          <mxGeometry x="270" y="40" width="90" height="30" as="geometry" />
        </mxCell>
        <mxCell id="HfhqxR9ILK057CA5Awt6-59" style="edgeStyle=orthogonalEdgeStyle;rounded=0;orthogonalLoop=1;jettySize=auto;html=1;entryX=0.5;entryY=1;entryDx=0;entryDy=0;strokeWidth=2;fillColor=#dae8fc;strokeColor=#6c8ebf;" parent="HfhqxR9ILK057CA5Awt6-63" source="HfhqxR9ILK057CA5Awt6-29" target="HfhqxR9ILK057CA5Awt6-7" edge="1">
          <mxGeometry relative="1" as="geometry">
            <Array as="points">
              <mxPoint x="45" y="220" />
            </Array>
          </mxGeometry>
        </mxCell>
        <mxCell id="HfhqxR9ILK057CA5Awt6-60" style="edgeStyle=orthogonalEdgeStyle;rounded=0;orthogonalLoop=1;jettySize=auto;html=1;strokeWidth=2;fillColor=#dae8fc;strokeColor=#6c8ebf;" parent="HfhqxR9ILK057CA5Awt6-63" source="HfhqxR9ILK057CA5Awt6-32" target="HfhqxR9ILK057CA5Awt6-41" edge="1">
          <mxGeometry relative="1" as="geometry">
            <Array as="points">
              <mxPoint x="295" y="260" />
              <mxPoint x="60" y="260" />
            </Array>
          </mxGeometry>
        </mxCell>
        <mxCell id="HfhqxR9ILK057CA5Awt6-61" value="&lt;h1 style=&quot;text-align:right&quot;&gt;&lt;font color=&quot;#e6d0de&quot; style=&quot;background-color: rgb(86, 114, 143);&quot;&gt;四資二乙&lt;span style=&quot;&quot; lang=&quot;EN-US&quot;&gt; B11090088 &lt;/span&gt;&lt;span style=&quot;font-family: 新細明體, serif;&quot;&gt;古莉婷&lt;/span&gt;&lt;/font&gt;&lt;/h1&gt;&lt;p style=&quot;text-align:right&quot; align=&quot;right&quot; class=&quot;MsoNormal&quot;&gt;&lt;span lang=&quot;EN-US&quot;&gt;&lt;/span&gt;&lt;/p&gt;" style="text;html=1;align=center;verticalAlign=middle;resizable=0;points=[];autosize=1;strokeColor=none;fillColor=none;" parent="HfhqxR9ILK057CA5Awt6-63" vertex="1">
          <mxGeometry x="50" width="330" height="80" as="geometry" />
        </mxCell>
      </root>
    </mxGraphModel>
  </diagram>
</mxfile>
